<mxfile host="app.diagrams.net" agent="Mozilla/5.0 (Macintosh; Intel Mac OS X 10_15_7) AppleWebKit/537.36 (KHTML, like Gecko) Chrome/129.0.0.0 Safari/537.36" version="24.7.17">
  <diagram name="Page-1" id="LzRWx2_gkLw6LA01cxXW">
    <mxGraphModel dx="1200" dy="1114" grid="0" gridSize="10" guides="1" tooltips="1" connect="1" arrows="1" fold="1" page="0" pageScale="1" pageWidth="850" pageHeight="1100" math="0" shadow="0">
      <root>
        <mxCell id="0" />
        <mxCell id="1" parent="0" />
        <mxCell id="3MVygj8vDT8octz2A9zd-6" value="" style="group" parent="1" vertex="1" connectable="0">
          <mxGeometry x="-150" y="63" width="88" height="95" as="geometry" />
        </mxCell>
        <mxCell id="3MVygj8vDT8octz2A9zd-1" value="" style="shape=umlActor;verticalLabelPosition=bottom;verticalAlign=top;html=1;outlineConnect=0;" parent="3MVygj8vDT8octz2A9zd-6" vertex="1">
          <mxGeometry x="25" width="30" height="60" as="geometry" />
        </mxCell>
        <mxCell id="3MVygj8vDT8octz2A9zd-2" value="" style="shape=umlActor;verticalLabelPosition=bottom;verticalAlign=top;html=1;outlineConnect=0;" parent="3MVygj8vDT8octz2A9zd-6" vertex="1">
          <mxGeometry y="9" width="30" height="60" as="geometry" />
        </mxCell>
        <mxCell id="3MVygj8vDT8octz2A9zd-3" value="" style="shape=umlActor;verticalLabelPosition=bottom;verticalAlign=top;html=1;outlineConnect=0;" parent="3MVygj8vDT8octz2A9zd-6" vertex="1">
          <mxGeometry x="48" y="9" width="30" height="60" as="geometry" />
        </mxCell>
        <mxCell id="3MVygj8vDT8octz2A9zd-7" value="Gym members" style="text;html=1;align=center;verticalAlign=middle;resizable=0;points=[];autosize=1;strokeColor=none;fillColor=none;" parent="3MVygj8vDT8octz2A9zd-6" vertex="1">
          <mxGeometry x="-9" y="69" width="97" height="26" as="geometry" />
        </mxCell>
        <mxCell id="3MVygj8vDT8octz2A9zd-9" value="" style="whiteSpace=wrap;html=1;aspect=fixed;" parent="1" vertex="1">
          <mxGeometry x="78" y="-112" width="435" height="435" as="geometry" />
        </mxCell>
        <mxCell id="3MVygj8vDT8octz2A9zd-10" value="&lt;div style=&quot;color: rgb(198, 208, 245); background-color: rgb(48, 52, 70); font-family: &amp;quot;Fira Code&amp;quot;, &amp;quot;Roboto mono&amp;quot;, &amp;quot;monospace&amp;quot;, monospace, Menlo, Monaco, &amp;quot;Courier New&amp;quot;, monospace; font-size: 13px; line-height: 20px; white-space: pre;&quot;&gt;&lt;span style=&quot;color: #e5c890;&quot;&gt; Olympus TrÃ¤ningscenter Gym &lt;/span&gt;&lt;/div&gt;" style="text;html=1;align=center;verticalAlign=middle;whiteSpace=wrap;rounded=0;" parent="1" vertex="1">
          <mxGeometry x="154" y="-156" width="81" height="44" as="geometry" />
        </mxCell>
        <mxCell id="3MVygj8vDT8octz2A9zd-11" value="" style="endArrow=classic;html=1;rounded=0;exitX=0.5;exitY=0.5;exitDx=0;exitDy=0;exitPerimeter=0;entryX=0;entryY=0.5;entryDx=0;entryDy=0;" parent="1" source="3MVygj8vDT8octz2A9zd-23" target="3MVygj8vDT8octz2A9zd-9" edge="1">
          <mxGeometry width="50" height="50" relative="1" as="geometry">
            <mxPoint x="143" y="100" as="sourcePoint" />
            <mxPoint x="193" y="50" as="targetPoint" />
          </mxGeometry>
        </mxCell>
        <mxCell id="3MVygj8vDT8octz2A9zd-12" value="20 members / hour" style="text;html=1;align=center;verticalAlign=middle;resizable=0;points=[];autosize=1;strokeColor=none;fillColor=none;" parent="1" vertex="1">
          <mxGeometry x="-68" y="68" width="119" height="26" as="geometry" />
        </mxCell>
        <mxCell id="3MVygj8vDT8octz2A9zd-19" style="edgeStyle=orthogonalEdgeStyle;rounded=0;orthogonalLoop=1;jettySize=auto;html=1;entryX=0.5;entryY=0;entryDx=0;entryDy=0;" parent="1" source="3MVygj8vDT8octz2A9zd-13" target="3MVygj8vDT8octz2A9zd-15" edge="1">
          <mxGeometry relative="1" as="geometry" />
        </mxCell>
        <mxCell id="3MVygj8vDT8octz2A9zd-30" value="75 % of members" style="edgeLabel;html=1;align=center;verticalAlign=middle;resizable=0;points=[];" parent="3MVygj8vDT8octz2A9zd-19" vertex="1" connectable="0">
          <mxGeometry x="-0.1336" relative="1" as="geometry">
            <mxPoint as="offset" />
          </mxGeometry>
        </mxCell>
        <mxCell id="3MVygj8vDT8octz2A9zd-28" style="edgeStyle=orthogonalEdgeStyle;rounded=0;orthogonalLoop=1;jettySize=auto;html=1;exitX=1;exitY=0.5;exitDx=0;exitDy=0;entryX=0;entryY=0.5;entryDx=0;entryDy=0;" parent="1" source="3MVygj8vDT8octz2A9zd-13" target="3MVygj8vDT8octz2A9zd-22" edge="1">
          <mxGeometry relative="1" as="geometry" />
        </mxCell>
        <mxCell id="3MVygj8vDT8octz2A9zd-29" value="25 % of members" style="edgeLabel;html=1;align=center;verticalAlign=middle;resizable=0;points=[];" parent="3MVygj8vDT8octz2A9zd-28" vertex="1" connectable="0">
          <mxGeometry x="-0.0014" y="-2" relative="1" as="geometry">
            <mxPoint x="8" as="offset" />
          </mxGeometry>
        </mxCell>
        <mxCell id="3MVygj8vDT8octz2A9zd-13" value="Cardio" style="rounded=1;whiteSpace=wrap;html=1;" parent="1" vertex="1">
          <mxGeometry x="248" y="-97" width="128" height="64" as="geometry" />
        </mxCell>
        <mxCell id="3MVygj8vDT8octz2A9zd-21" value="" style="edgeStyle=orthogonalEdgeStyle;rounded=0;orthogonalLoop=1;jettySize=auto;html=1;" parent="1" source="3MVygj8vDT8octz2A9zd-14" target="3MVygj8vDT8octz2A9zd-16" edge="1">
          <mxGeometry relative="1" as="geometry" />
        </mxCell>
        <mxCell id="3MVygj8vDT8octz2A9zd-14" value="Cable machines" style="rounded=1;whiteSpace=wrap;html=1;" parent="1" vertex="1">
          <mxGeometry x="246" y="138.5" width="132" height="66" as="geometry" />
        </mxCell>
        <mxCell id="3MVygj8vDT8octz2A9zd-20" value="" style="edgeStyle=orthogonalEdgeStyle;rounded=0;orthogonalLoop=1;jettySize=auto;html=1;" parent="1" source="3MVygj8vDT8octz2A9zd-15" target="3MVygj8vDT8octz2A9zd-14" edge="1">
          <mxGeometry relative="1" as="geometry" />
        </mxCell>
        <mxCell id="3MVygj8vDT8octz2A9zd-15" value="Free-weights" style="rounded=1;whiteSpace=wrap;html=1;" parent="1" vertex="1">
          <mxGeometry x="244.5" y="39" width="135" height="67.5" as="geometry" />
        </mxCell>
        <mxCell id="3MVygj8vDT8octz2A9zd-31" style="edgeStyle=orthogonalEdgeStyle;rounded=0;orthogonalLoop=1;jettySize=auto;html=1;entryX=0;entryY=0.5;entryDx=0;entryDy=0;" parent="1" target="3MVygj8vDT8octz2A9zd-22" edge="1">
          <mxGeometry relative="1" as="geometry">
            <mxPoint x="342" y="261.8961904761906" as="sourcePoint" />
            <mxPoint x="463.4185245480396" y="91.00147545196016" as="targetPoint" />
            <Array as="points">
              <mxPoint x="436" y="262" />
              <mxPoint x="436" y="86" />
            </Array>
          </mxGeometry>
        </mxCell>
        <mxCell id="3MVygj8vDT8octz2A9zd-16" value="Weight machines" style="rounded=1;whiteSpace=wrap;html=1;" parent="1" vertex="1">
          <mxGeometry x="244" y="236.5" width="136" height="68" as="geometry" />
        </mxCell>
        <mxCell id="3MVygj8vDT8octz2A9zd-17" value="" style="endArrow=classic;html=1;rounded=0;exitX=1;exitY=0;exitDx=0;exitDy=0;entryX=0;entryY=0.5;entryDx=0;entryDy=0;" parent="1" source="3MVygj8vDT8octz2A9zd-23" target="3MVygj8vDT8octz2A9zd-13" edge="1">
          <mxGeometry width="50" height="50" relative="1" as="geometry">
            <mxPoint x="105" y="187" as="sourcePoint" />
            <mxPoint x="155" y="137" as="targetPoint" />
          </mxGeometry>
        </mxCell>
        <mxCell id="3MVygj8vDT8octz2A9zd-26" value="" style="edgeStyle=orthogonalEdgeStyle;rounded=0;orthogonalLoop=1;jettySize=auto;html=1;" parent="1" source="3MVygj8vDT8octz2A9zd-22" edge="1">
          <mxGeometry relative="1" as="geometry">
            <mxPoint x="636" y="86" as="targetPoint" />
          </mxGeometry>
        </mxCell>
        <mxCell id="3MVygj8vDT8octz2A9zd-22" value="out" style="ellipse;whiteSpace=wrap;html=1;aspect=fixed;" parent="1" vertex="1">
          <mxGeometry x="496" y="68" width="37" height="37" as="geometry" />
        </mxCell>
        <mxCell id="3MVygj8vDT8octz2A9zd-24" value="" style="endArrow=classic;html=1;rounded=0;exitX=0.5;exitY=0.5;exitDx=0;exitDy=0;exitPerimeter=0;entryX=0;entryY=0.5;entryDx=0;entryDy=0;" parent="1" source="3MVygj8vDT8octz2A9zd-3" target="3MVygj8vDT8octz2A9zd-23" edge="1">
          <mxGeometry width="50" height="50" relative="1" as="geometry">
            <mxPoint x="-130" y="100" as="sourcePoint" />
            <mxPoint x="78" y="106" as="targetPoint" />
          </mxGeometry>
        </mxCell>
        <mxCell id="3MVygj8vDT8octz2A9zd-23" value="in" style="ellipse;whiteSpace=wrap;html=1;aspect=fixed;" parent="1" vertex="1">
          <mxGeometry x="57" y="84" width="37" height="37" as="geometry" />
        </mxCell>
        <mxCell id="3MVygj8vDT8octz2A9zd-32" value="M | M |&amp;nbsp;&lt;span style=&quot;background-color: initial;&quot;&gt;18&lt;/span&gt;" style="text;html=1;align=center;verticalAlign=middle;whiteSpace=wrap;rounded=0;" parent="1" vertex="1">
          <mxGeometry x="282" y="-97" width="60" height="30" as="geometry" />
        </mxCell>
        <mxCell id="3MVygj8vDT8octz2A9zd-33" value="M | M | 4" style="text;html=1;align=center;verticalAlign=middle;whiteSpace=wrap;rounded=0;" parent="1" vertex="1">
          <mxGeometry x="282" y="39" width="60" height="30" as="geometry" />
        </mxCell>
        <mxCell id="3MVygj8vDT8octz2A9zd-34" value="M | M | 8" style="text;html=1;align=center;verticalAlign=middle;whiteSpace=wrap;rounded=0;" parent="1" vertex="1">
          <mxGeometry x="282" y="138.5" width="60" height="30" as="geometry" />
        </mxCell>
        <mxCell id="3MVygj8vDT8octz2A9zd-35" value="M | M | 12" style="text;html=1;align=center;verticalAlign=middle;whiteSpace=wrap;rounded=0;" parent="1" vertex="1">
          <mxGeometry x="280" y="236.5" width="60" height="30" as="geometry" />
        </mxCell>
        <mxCell id="QRSTHMwBof7Y1hGy-5Yf-4" value="" style="group" vertex="1" connectable="0" parent="1">
          <mxGeometry x="-150" y="683" width="78" height="69" as="geometry" />
        </mxCell>
        <mxCell id="QRSTHMwBof7Y1hGy-5Yf-1" value="" style="shape=umlActor;verticalLabelPosition=bottom;verticalAlign=top;html=1;outlineConnect=0;" vertex="1" parent="QRSTHMwBof7Y1hGy-5Yf-4">
          <mxGeometry x="25" width="30" height="60" as="geometry" />
        </mxCell>
        <mxCell id="QRSTHMwBof7Y1hGy-5Yf-2" value="" style="shape=umlActor;verticalLabelPosition=bottom;verticalAlign=top;html=1;outlineConnect=0;" vertex="1" parent="QRSTHMwBof7Y1hGy-5Yf-4">
          <mxGeometry y="9" width="30" height="60" as="geometry" />
        </mxCell>
        <mxCell id="QRSTHMwBof7Y1hGy-5Yf-3" value="" style="shape=umlActor;verticalLabelPosition=bottom;verticalAlign=top;html=1;outlineConnect=0;" vertex="1" parent="QRSTHMwBof7Y1hGy-5Yf-4">
          <mxGeometry x="48" y="9" width="30" height="60" as="geometry" />
        </mxCell>
        <mxCell id="QRSTHMwBof7Y1hGy-5Yf-5" value="" style="endArrow=classic;html=1;rounded=0;" edge="1" parent="1" target="QRSTHMwBof7Y1hGy-5Yf-6">
          <mxGeometry width="50" height="50" relative="1" as="geometry">
            <mxPoint x="-70" y="712" as="sourcePoint" />
            <mxPoint x="46" y="707" as="targetPoint" />
          </mxGeometry>
        </mxCell>
        <mxCell id="QRSTHMwBof7Y1hGy-5Yf-6" value="M |&amp;nbsp;&lt;span style=&quot;background-color: initial;&quot;&gt;M | 2&lt;/span&gt;" style="whiteSpace=wrap;html=1;aspect=fixed;" vertex="1" parent="1">
          <mxGeometry x="-4" y="662" width="105" height="105" as="geometry" />
        </mxCell>
        <mxCell id="QRSTHMwBof7Y1hGy-5Yf-7" value="Food Truck" style="text;html=1;align=center;verticalAlign=middle;resizable=0;points=[];autosize=1;strokeColor=none;fillColor=none;" vertex="1" parent="1">
          <mxGeometry x="-4" y="632" width="78" height="26" as="geometry" />
        </mxCell>
        <mxCell id="QRSTHMwBof7Y1hGy-5Yf-8" value="orders" style="text;html=1;align=center;verticalAlign=middle;resizable=0;points=[];autosize=1;strokeColor=none;fillColor=none;" vertex="1" parent="1">
          <mxGeometry x="-68" y="683" width="52" height="26" as="geometry" />
        </mxCell>
        <mxCell id="QRSTHMwBof7Y1hGy-5Yf-9" value="" style="endArrow=classic;html=1;rounded=0;exitX=1;exitY=0.5;exitDx=0;exitDy=0;" edge="1" parent="1" source="QRSTHMwBof7Y1hGy-5Yf-6">
          <mxGeometry width="50" height="50" relative="1" as="geometry">
            <mxPoint x="149" y="691" as="sourcePoint" />
            <mxPoint x="176" y="715" as="targetPoint" />
          </mxGeometry>
        </mxCell>
        <mxCell id="QRSTHMwBof7Y1hGy-5Yf-10" value="customers" style="text;html=1;align=center;verticalAlign=middle;resizable=0;points=[];autosize=1;strokeColor=none;fillColor=none;" vertex="1" parent="1">
          <mxGeometry x="-145" y="749" width="73" height="26" as="geometry" />
        </mxCell>
      </root>
    </mxGraphModel>
  </diagram>
</mxfile>
